<mxfile host="app.diagrams.net" agent="Mozilla/5.0 (X11; Ubuntu; Linux x86_64; rv:139.0) Gecko/20100101 Firefox/139.0" version="27.1.4">
  <diagram name="Page-1" id="A-cSYwWaF__q3dUjk-7q">
    <mxGraphModel dx="903" dy="582" grid="1" gridSize="10" guides="1" tooltips="1" connect="1" arrows="1" fold="1" page="1" pageScale="1" pageWidth="827" pageHeight="1169" math="0" shadow="0">
      <root>
        <mxCell id="0" />
        <mxCell id="1" parent="0" />
        <mxCell id="S_Iyt15h-f1yNMa696zp-2" value="launcher" style="rounded=1;whiteSpace=wrap;html=1;" vertex="1" parent="1">
          <mxGeometry x="210" y="130" width="120" height="60" as="geometry" />
        </mxCell>
        <mxCell id="S_Iyt15h-f1yNMa696zp-3" value="wallpaper" style="rounded=1;whiteSpace=wrap;html=1;" vertex="1" parent="1">
          <mxGeometry x="440" y="70" width="120" height="60" as="geometry" />
        </mxCell>
        <mxCell id="S_Iyt15h-f1yNMa696zp-4" value="3D" style="rounded=1;whiteSpace=wrap;html=1;" vertex="1" parent="1">
          <mxGeometry x="440" y="150" width="120" height="60" as="geometry" />
        </mxCell>
        <mxCell id="S_Iyt15h-f1yNMa696zp-5" value="地图" style="rounded=1;whiteSpace=wrap;html=1;" vertex="1" parent="1">
          <mxGeometry x="440" y="240" width="120" height="60" as="geometry" />
        </mxCell>
        <mxCell id="S_Iyt15h-f1yNMa696zp-6" value="" style="endArrow=classic;html=1;rounded=0;entryX=0;entryY=0.5;entryDx=0;entryDy=0;" edge="1" parent="1" target="S_Iyt15h-f1yNMa696zp-3">
          <mxGeometry width="50" height="50" relative="1" as="geometry">
            <mxPoint x="330" y="160" as="sourcePoint" />
            <mxPoint x="380" y="110" as="targetPoint" />
          </mxGeometry>
        </mxCell>
        <mxCell id="S_Iyt15h-f1yNMa696zp-7" value="" style="endArrow=classic;html=1;rounded=0;entryX=0;entryY=0.5;entryDx=0;entryDy=0;" edge="1" parent="1" target="S_Iyt15h-f1yNMa696zp-4">
          <mxGeometry width="50" height="50" relative="1" as="geometry">
            <mxPoint x="330" y="160" as="sourcePoint" />
            <mxPoint x="440" y="280" as="targetPoint" />
          </mxGeometry>
        </mxCell>
        <mxCell id="S_Iyt15h-f1yNMa696zp-8" value="" style="endArrow=classic;html=1;rounded=0;exitX=1;exitY=0.5;exitDx=0;exitDy=0;" edge="1" parent="1" source="S_Iyt15h-f1yNMa696zp-2">
          <mxGeometry width="50" height="50" relative="1" as="geometry">
            <mxPoint x="390" y="330" as="sourcePoint" />
            <mxPoint x="440" y="280" as="targetPoint" />
          </mxGeometry>
        </mxCell>
        <mxCell id="S_Iyt15h-f1yNMa696zp-9" value="&lt;div&gt;draw&lt;/div&gt;" style="text;html=1;align=center;verticalAlign=middle;whiteSpace=wrap;rounded=0;" vertex="1" parent="1">
          <mxGeometry x="353.5" y="100" width="60" height="30" as="geometry" />
        </mxCell>
        <mxCell id="S_Iyt15h-f1yNMa696zp-10" value="&lt;div&gt;draw&lt;/div&gt;" style="text;html=1;align=center;verticalAlign=middle;whiteSpace=wrap;rounded=0;" vertex="1" parent="1">
          <mxGeometry x="370" y="150" width="60" height="30" as="geometry" />
        </mxCell>
        <mxCell id="S_Iyt15h-f1yNMa696zp-11" value="&lt;div&gt;draw&lt;/div&gt;" style="text;html=1;align=center;verticalAlign=middle;whiteSpace=wrap;rounded=0;" vertex="1" parent="1">
          <mxGeometry x="370" y="200" width="60" height="30" as="geometry" />
        </mxCell>
        <mxCell id="S_Iyt15h-f1yNMa696zp-26" value="QNX" style="rounded=0;whiteSpace=wrap;html=1;" vertex="1" parent="1">
          <mxGeometry x="210" y="370" width="120" height="60" as="geometry" />
        </mxCell>
        <mxCell id="S_Iyt15h-f1yNMa696zp-27" value="dim layer" style="rounded=0;whiteSpace=wrap;html=1;" vertex="1" parent="1">
          <mxGeometry x="450" y="370" width="120" height="60" as="geometry" />
        </mxCell>
        <mxCell id="S_Iyt15h-f1yNMa696zp-28" value="" style="endArrow=classic;html=1;rounded=0;exitX=1;exitY=0.5;exitDx=0;exitDy=0;entryX=0;entryY=0.5;entryDx=0;entryDy=0;" edge="1" parent="1" source="S_Iyt15h-f1yNMa696zp-26" target="S_Iyt15h-f1yNMa696zp-27">
          <mxGeometry width="50" height="50" relative="1" as="geometry">
            <mxPoint x="390" y="330" as="sourcePoint" />
            <mxPoint x="440" y="280" as="targetPoint" />
          </mxGeometry>
        </mxCell>
        <mxCell id="S_Iyt15h-f1yNMa696zp-29" value="" style="endArrow=classic;html=1;rounded=0;exitX=0.5;exitY=1;exitDx=0;exitDy=0;entryX=0.5;entryY=0;entryDx=0;entryDy=0;" edge="1" parent="1" source="S_Iyt15h-f1yNMa696zp-2" target="S_Iyt15h-f1yNMa696zp-26">
          <mxGeometry width="50" height="50" relative="1" as="geometry">
            <mxPoint x="390" y="330" as="sourcePoint" />
            <mxPoint x="440" y="280" as="targetPoint" />
          </mxGeometry>
        </mxCell>
        <mxCell id="S_Iyt15h-f1yNMa696zp-33" value="wallpaper" style="rounded=1;whiteSpace=wrap;html=1;" vertex="1" parent="1">
          <mxGeometry x="238.5" y="560" width="120" height="60" as="geometry" />
        </mxCell>
        <mxCell id="S_Iyt15h-f1yNMa696zp-34" value="3D" style="rounded=1;whiteSpace=wrap;html=1;" vertex="1" parent="1">
          <mxGeometry x="238.5" y="640" width="120" height="60" as="geometry" />
        </mxCell>
        <mxCell id="S_Iyt15h-f1yNMa696zp-35" value="地图" style="rounded=1;whiteSpace=wrap;html=1;" vertex="1" parent="1">
          <mxGeometry x="238.5" y="730" width="120" height="60" as="geometry" />
        </mxCell>
        <mxCell id="S_Iyt15h-f1yNMa696zp-41" value="&lt;div&gt;draw&lt;/div&gt;" style="text;html=1;align=center;verticalAlign=middle;whiteSpace=wrap;rounded=0;" vertex="1" parent="1">
          <mxGeometry x="168.5" y="690" width="60" height="30" as="geometry" />
        </mxCell>
        <mxCell id="S_Iyt15h-f1yNMa696zp-42" value="launcher" style="rounded=1;whiteSpace=wrap;html=1;" vertex="1" parent="1">
          <mxGeometry x="458.5" y="810" width="120" height="60" as="geometry" />
        </mxCell>
        <mxCell id="S_Iyt15h-f1yNMa696zp-43" value="WMS" style="rounded=1;whiteSpace=wrap;html=1;" vertex="1" parent="1">
          <mxGeometry x="458.5" y="630" width="120" height="60" as="geometry" />
        </mxCell>
        <mxCell id="S_Iyt15h-f1yNMa696zp-44" value="" style="endArrow=classic;html=1;rounded=0;exitX=0;exitY=0.5;exitDx=0;exitDy=0;entryX=1;entryY=0.5;entryDx=0;entryDy=0;" edge="1" parent="1" source="S_Iyt15h-f1yNMa696zp-43" target="S_Iyt15h-f1yNMa696zp-33">
          <mxGeometry width="50" height="50" relative="1" as="geometry">
            <mxPoint x="188.5" y="820" as="sourcePoint" />
            <mxPoint x="238.5" y="770" as="targetPoint" />
          </mxGeometry>
        </mxCell>
        <mxCell id="S_Iyt15h-f1yNMa696zp-45" value="" style="endArrow=classic;html=1;rounded=0;exitX=0;exitY=0.5;exitDx=0;exitDy=0;entryX=1;entryY=0.5;entryDx=0;entryDy=0;" edge="1" parent="1" source="S_Iyt15h-f1yNMa696zp-43" target="S_Iyt15h-f1yNMa696zp-34">
          <mxGeometry width="50" height="50" relative="1" as="geometry">
            <mxPoint x="188.5" y="820" as="sourcePoint" />
            <mxPoint x="238.5" y="770" as="targetPoint" />
          </mxGeometry>
        </mxCell>
        <mxCell id="S_Iyt15h-f1yNMa696zp-46" value="" style="endArrow=classic;html=1;rounded=0;exitX=0;exitY=0.5;exitDx=0;exitDy=0;entryX=1;entryY=0.5;entryDx=0;entryDy=0;" edge="1" parent="1" source="S_Iyt15h-f1yNMa696zp-43" target="S_Iyt15h-f1yNMa696zp-35">
          <mxGeometry width="50" height="50" relative="1" as="geometry">
            <mxPoint x="188.5" y="820" as="sourcePoint" />
            <mxPoint x="238.5" y="770" as="targetPoint" />
          </mxGeometry>
        </mxCell>
        <mxCell id="S_Iyt15h-f1yNMa696zp-47" value="" style="endArrow=classic;html=1;rounded=0;exitX=0.5;exitY=1;exitDx=0;exitDy=0;entryX=0.5;entryY=0;entryDx=0;entryDy=0;" edge="1" parent="1" source="S_Iyt15h-f1yNMa696zp-43" target="S_Iyt15h-f1yNMa696zp-42">
          <mxGeometry width="50" height="50" relative="1" as="geometry">
            <mxPoint x="188.5" y="820" as="sourcePoint" />
            <mxPoint x="238.5" y="770" as="targetPoint" />
          </mxGeometry>
        </mxCell>
        <mxCell id="S_Iyt15h-f1yNMa696zp-48" value="&lt;div&gt;draw&lt;/div&gt;" style="text;html=1;align=center;verticalAlign=middle;whiteSpace=wrap;rounded=0;" vertex="1" parent="1">
          <mxGeometry x="398.5" y="600" width="60" height="30" as="geometry" />
        </mxCell>
        <mxCell id="S_Iyt15h-f1yNMa696zp-49" value="&lt;div&gt;draw&lt;/div&gt;" style="text;html=1;align=center;verticalAlign=middle;whiteSpace=wrap;rounded=0;" vertex="1" parent="1">
          <mxGeometry x="368.5" y="635" width="60" height="30" as="geometry" />
        </mxCell>
        <mxCell id="S_Iyt15h-f1yNMa696zp-50" value="&lt;div&gt;draw&lt;/div&gt;" style="text;html=1;align=center;verticalAlign=middle;whiteSpace=wrap;rounded=0;" vertex="1" parent="1">
          <mxGeometry x="358.5" y="690" width="60" height="30" as="geometry" />
        </mxCell>
        <mxCell id="S_Iyt15h-f1yNMa696zp-51" value="notify&amp;nbsp;draw" style="text;html=1;align=center;verticalAlign=middle;whiteSpace=wrap;rounded=0;" vertex="1" parent="1">
          <mxGeometry x="518.5" y="740" width="80" height="30" as="geometry" />
        </mxCell>
        <mxCell id="S_Iyt15h-f1yNMa696zp-52" value="dim layer" style="rounded=0;whiteSpace=wrap;html=1;" vertex="1" parent="1">
          <mxGeometry x="458.5" y="930" width="120" height="60" as="geometry" />
        </mxCell>
        <mxCell id="S_Iyt15h-f1yNMa696zp-53" value="QNX" style="rounded=0;whiteSpace=wrap;html=1;" vertex="1" parent="1">
          <mxGeometry x="238.5" y="930" width="120" height="60" as="geometry" />
        </mxCell>
        <mxCell id="S_Iyt15h-f1yNMa696zp-57" value="" style="endArrow=classic;html=1;rounded=0;exitX=0;exitY=0.5;exitDx=0;exitDy=0;entryX=0.5;entryY=0;entryDx=0;entryDy=0;" edge="1" parent="1" source="S_Iyt15h-f1yNMa696zp-42" target="S_Iyt15h-f1yNMa696zp-53">
          <mxGeometry width="50" height="50" relative="1" as="geometry">
            <mxPoint x="208.5" y="760" as="sourcePoint" />
            <mxPoint x="258.5" y="710" as="targetPoint" />
          </mxGeometry>
        </mxCell>
        <mxCell id="S_Iyt15h-f1yNMa696zp-58" value="dismiss" style="text;html=1;align=center;verticalAlign=middle;whiteSpace=wrap;rounded=0;" vertex="1" parent="1">
          <mxGeometry x="338.5" y="860" width="60" height="30" as="geometry" />
        </mxCell>
        <mxCell id="S_Iyt15h-f1yNMa696zp-59" value="" style="endArrow=classic;html=1;rounded=0;entryX=0;entryY=0.5;entryDx=0;entryDy=0;exitX=1;exitY=0.5;exitDx=0;exitDy=0;" edge="1" parent="1" source="S_Iyt15h-f1yNMa696zp-53" target="S_Iyt15h-f1yNMa696zp-52">
          <mxGeometry width="50" height="50" relative="1" as="geometry">
            <mxPoint x="358.5" y="970" as="sourcePoint" />
            <mxPoint x="408.5" y="920" as="targetPoint" />
          </mxGeometry>
        </mxCell>
        <mxCell id="S_Iyt15h-f1yNMa696zp-60" value="show/dismiss" style="text;html=1;align=center;verticalAlign=middle;whiteSpace=wrap;rounded=0;" vertex="1" parent="1">
          <mxGeometry x="368.5" y="930" width="80" height="30" as="geometry" />
        </mxCell>
        <mxCell id="S_Iyt15h-f1yNMa696zp-62" value="dismiss" style="text;html=1;align=center;verticalAlign=middle;whiteSpace=wrap;rounded=0;" vertex="1" parent="1">
          <mxGeometry x="270" y="280" width="60" height="30" as="geometry" />
        </mxCell>
        <mxCell id="S_Iyt15h-f1yNMa696zp-63" value="show/dismiss" style="text;html=1;align=center;verticalAlign=middle;whiteSpace=wrap;rounded=0;" vertex="1" parent="1">
          <mxGeometry x="350" y="380" width="80" height="30" as="geometry" />
        </mxCell>
        <mxCell id="S_Iyt15h-f1yNMa696zp-65" value="" style="endArrow=classic;html=1;rounded=0;exitX=0.5;exitY=1;exitDx=0;exitDy=0;" edge="1" parent="1">
          <mxGeometry width="50" height="50" relative="1" as="geometry">
            <mxPoint x="300" y="870" as="sourcePoint" />
            <mxPoint x="300" y="930" as="targetPoint" />
          </mxGeometry>
        </mxCell>
        <mxCell id="S_Iyt15h-f1yNMa696zp-68" value="Show" style="text;html=1;align=center;verticalAlign=middle;whiteSpace=wrap;rounded=0;" vertex="1" parent="1">
          <mxGeometry x="290" y="880" width="60" height="30" as="geometry" />
        </mxCell>
        <mxCell id="S_Iyt15h-f1yNMa696zp-69" value="" style="endArrow=classic;html=1;rounded=0;" edge="1" parent="1">
          <mxGeometry width="50" height="50" relative="1" as="geometry">
            <mxPoint x="120" y="400" as="sourcePoint" />
            <mxPoint x="210" y="400" as="targetPoint" />
          </mxGeometry>
        </mxCell>
        <mxCell id="S_Iyt15h-f1yNMa696zp-72" value="exit STR" style="text;html=1;align=center;verticalAlign=middle;whiteSpace=wrap;rounded=0;" vertex="1" parent="1">
          <mxGeometry x="60" y="385" width="60" height="30" as="geometry" />
        </mxCell>
        <mxCell id="S_Iyt15h-f1yNMa696zp-73" value="Show" style="text;html=1;align=center;verticalAlign=middle;whiteSpace=wrap;rounded=0;" vertex="1" parent="1">
          <mxGeometry x="130" y="370" width="60" height="30" as="geometry" />
        </mxCell>
        <mxCell id="S_Iyt15h-f1yNMa696zp-74" value="exit STR" style="text;html=1;align=center;verticalAlign=middle;whiteSpace=wrap;rounded=0;" vertex="1" parent="1">
          <mxGeometry x="270" y="840" width="60" height="30" as="geometry" />
        </mxCell>
        <mxCell id="S_Iyt15h-f1yNMa696zp-75" value="Launcher" style="rounded=1;whiteSpace=wrap;html=1;" vertex="1" parent="1">
          <mxGeometry x="238.5" y="480" width="120" height="60" as="geometry" />
        </mxCell>
        <mxCell id="S_Iyt15h-f1yNMa696zp-76" value="" style="endArrow=classic;html=1;rounded=0;entryX=1;entryY=0.5;entryDx=0;entryDy=0;" edge="1" parent="1" target="S_Iyt15h-f1yNMa696zp-75">
          <mxGeometry width="50" height="50" relative="1" as="geometry">
            <mxPoint x="460" y="660" as="sourcePoint" />
            <mxPoint x="430" y="350" as="targetPoint" />
          </mxGeometry>
        </mxCell>
        <mxCell id="S_Iyt15h-f1yNMa696zp-78" value="draw" style="text;html=1;align=center;verticalAlign=middle;whiteSpace=wrap;rounded=0;" vertex="1" parent="1">
          <mxGeometry x="398.5" y="560" width="60" height="30" as="geometry" />
        </mxCell>
      </root>
    </mxGraphModel>
  </diagram>
</mxfile>
